<?xml version="1.0" encoding="UTF-8" standalone="no"?>
<svg
   xmlns:dc="http://purl.org/dc/elements/1.1/"
   xmlns:cc="http://creativecommons.org/ns#"
   xmlns:rdf="http://www.w3.org/1999/02/22-rdf-syntax-ns#"
   xmlns:svg="http://www.w3.org/2000/svg"
   xmlns="http://www.w3.org/2000/svg"
   viewBox="0 0 120 120"
   height="120"
   width="120"
   version="1.1"
   id="svg3569">
  <metadata
     id="metadata3575">
    <rdf:RDF>
      <cc:Work
         rdf:about="">
        <dc:format>image/svg+xml</dc:format>
        <dc:type
           rdf:resource="http://purl.org/dc/dcmitype/StillImage" />
        <dc:title></dc:title>
      </cc:Work>
    </rdf:RDF>
  </metadata>
  <defs
     id="defs3573" />
  <path
     id="path3579"
     d="M 45.29445,118.07058 C 34.34871,115.20297 26.59858,110.66588 18.05909,102.12639 9.3971601,93.464457 4.9573205,85.793142 2.0681905,74.496731 -1.5401595,60.388217 0.33316047,45.047167 7.2845405,31.77879 11.5346,23.666535 23.66653,11.5346 31.77879,7.2845399 45.04717,0.33315527 60.38822,-1.5401637 74.49673,2.0681863 c 11.29641,2.889136 18.96773,7.3289768 27.62966,15.9909087 8.66193,8.661932 13.10177,16.333247 15.99091,27.629658 3.60835,14.108514 1.73503,29.449564 -5.21636,42.717941 -4.25006,8.112255 -16.38199,20.244186 -24.49425,24.494246 -13.23116,6.93189 -29.1154,8.83659 -43.11224,5.16964 z m 29.45812,-3.3881 c 10.16006,-2.68018 22.67443,-10.43616 28.30058,-17.539746 1.67177,-2.11079 3.03959,-4.110544 3.03959,-4.443896 0,-1.010751 -11.02393,-0.578194 -19.12573,0.750455 -9.13298,1.497758 -11.56453,2.955914 -16.84214,10.099957 -3.01053,4.0752 -4.96971,5.70987 -7.77813,6.48981 -5.57353,1.54783 -7.01561,1.33536 -12.63227,-1.86122 -2.81695,-1.6032 -8.72173,-3.89679 -13.12173,-5.09688 -4.4,-1.20008 -9.90681,-2.84842 -12.23736,-3.662971 -4.31836,-1.50932 -8.26264,-5.741118 -8.26264,-8.864947 0,-0.952027 -1.125,-2.773573 -2.5,-4.04788 -3.02446,-2.802973 -3.1626,-5.604247 -0.48964,-9.929179 1.1057,-1.789055 2.51421,-5.89217 3.13002,-9.118034 1.38883,-7.275182 12.27923,-30.396506 18.27405,-38.79749 5.82615,-8.164623 14.72379,-16.229237 19.4767,-17.653246 2.08012,-0.623219 7.64221,-0.971428 12.36019,-0.773798 7.635,0.31982 9.05339,0.693407 12.90058,3.397863 2.37734,1.671195 5.97628,5.226733 7.99764,7.901197 3.61097,4.777669 4.55176,7.362 6.83502,18.775531 0.62883,3.143396 3.39628,10.118396 6.14989,15.5 2.75362,5.381605 6.03734,12.296008 7.29717,15.36534 2.27374,5.539525 2.27643,5.600071 0.36427,8.225035 -2.07075,2.842686 -2.16034,8.756926 -0.14267,9.418422 1.44966,0.475273 5.73827,-8.606424 7.18919,-15.224061 2.03163,-9.266208 2.2978,-13.968917 1.1827,-20.895893 C 112.9093,32.765495 101.97976,17.671845 84.71208,9.3256121 59.57968,-2.8219827 28.76206,5.2748353 13.65856,27.993741 -5.9289395,57.45754 4.1190105,95.633754 35.47341,110.87713 c 3.36563,1.63625 8.59433,3.4747 11.61933,4.08546 3.025,0.61075 6.4,1.31128 7.5,1.55672 3.07714,0.6866 14.56011,-0.35966 20.15983,-1.83683 z M 61.36061,99.556689 c 2.05267,-1.39483 3.74076,-2.857326 3.75132,-3.249998 0.0105,-0.392672 1.58484,-2.508219 3.49844,-4.701215 1.91359,-2.192997 4.21771,-6.21054 5.12026,-8.927874 1.61633,-4.866329 1.60717,-4.968001 -0.60923,-6.762734 -3.59207,-2.908682 -8.49136,-2.385431 -11.02866,1.177874 -2.48359,3.487879 -4.95079,3.81684 -7.5,1 -0.99548,-1.1 -1.31679,-2 -0.714,-2 0.60278,0 1.37408,0.45 1.714,1 0.33992,0.55 1.29113,1 2.11381,1 1.15775,0 1.42689,-1.05578 1.19098,-4.671831 -0.36347,-5.571273 -1.84356,-6.380311 -5.31733,-2.906536 -1.41315,1.413148 -3.78843,3.20363 -5.27841,3.978849 -1.48998,0.77522 -3.78331,2.55949 -5.09629,3.965046 -3.20578,3.431798 -2.42124,8.088241 2.58821,15.361745 6.20345,9.007125 9.1539,10.094415 15.5669,5.736674 z M 50.30213,85.964572 c 0.31471,-0.944123 2.86592,-1.411096 8.66573,-1.586172 4.52085,-0.136469 8.00619,0.09737 7.74521,0.519652 -0.26098,0.422277 -3.31982,0.874936 -6.79742,1.005909 -3.4776,0.130974 -7.16365,0.499252 -8.19122,0.818396 -1.27945,0.397372 -1.72774,0.158528 -1.4223,-0.757785 z M 34.94832,73.729557 c 10.13361,-4.117658 18.64512,-9.29341 21.55344,-13.106414 1.48102,-1.941721 3.42836,-3.530401 4.32742,-3.530401 0.89906,0 2.67171,-0.97426 3.93922,-2.165022 1.96162,-1.842852 2.67805,-1.994849 4.81445,-1.021439 2.27165,1.035034 2.50927,0.932048 2.5033,-1.084978 -0.004,-1.225708 -0.90066,-3.578561 -1.99341,-5.228561 -2.41766,-3.650552 -2.48497,-6.140372 -0.36977,-13.678896 1.87823,-6.693936 5.81805,-11.772829 7.68457,-9.906308 0.89594,0.895947 0.76137,1.887372 -0.57142,4.209622 -0.95886,1.670714 -1.74338,4.126193 -1.74338,5.456622 0,1.330428 -0.9,3.31896 -2,4.41896 -1.1,1.1 -1.9956,3.0125 -1.99023,4.25 0.015,3.446608 4.42508,11.92445 7.8093,15.012329 1.66509,1.51928 3.31185,4.05725 3.65946,5.639932 0.4253,1.93634 2.0272,3.759483 4.89731,5.57366 2.3459,1.482832 5.05776,3.894862 6.02635,5.360068 1.14927,1.738529 1.52451,1.969208 1.08012,0.664011 C 92.76918,69.288762 89.98749,53.091695 89.13628,42.924179 87.95678,28.835278 86.03335,22.249679 81.92479,18.232794 75.44508,11.897679 60.60256,9.7513551 52.35826,13.957284 43.1082,18.676312 32.75252,32.309807 25.21137,49.696798 19.15983,63.649329 15.3953,79.092742 18.04574,79.092742 c 1.10852,0 3.0333,-6.34594 3.04142,-10.027494 0.003,-1.390121 0.61663,-3.415121 1.36346,-4.5 0.74684,-1.084878 1.59679,-4.156385 1.88878,-6.825571 0.54574,-4.988737 3.76062,-10.232498 3.74671,-6.111221 -0.008,2.453591 -3.67285,23.879056 -4.56499,26.689951 l -0.65835,2.074279 2.86585,-2.040664 c 1.57621,-1.122365 5.72508,-3.202474 9.2197,-4.622465 z"
     style="fill:#000000" />
</svg>
