<?xml version="1.0" encoding="UTF-8" standalone="no"?>
<svg
   xmlns:dc="http://purl.org/dc/elements/1.1/"
   xmlns:cc="http://creativecommons.org/ns#"
   xmlns:rdf="http://www.w3.org/1999/02/22-rdf-syntax-ns#"
   xmlns:svg="http://www.w3.org/2000/svg"
   xmlns="http://www.w3.org/2000/svg"
   viewBox="0 0 150 150"
   height="150"
   width="150"
   version="1.1"
   id="svg3478">
  <metadata
     id="metadata3484">
    <rdf:RDF>
      <cc:Work
         rdf:about="">
        <dc:format>image/svg+xml</dc:format>
        <dc:type
           rdf:resource="http://purl.org/dc/dcmitype/StillImage" />
        <dc:title></dc:title>
      </cc:Work>
    </rdf:RDF>
  </metadata>
  <defs
     id="defs3482" />
  <path
     id="path3488"
     d="m 58.010019,145.57231 c -3.995549,-2.35215 -12.656318,-5.73083 -19.246154,-7.50818 -6.589836,-1.77733 -14.804497,-4.22375 -18.254817,-5.43648 -6.393727,-2.24729 -12.2326137,-8.51771 -12.2326137,-13.13668 0,-1.40947 -1.6655325,-4.10621 -3.7011835,-5.9928 C 0.09762291,109.34845 -0.10689089,105.20124 3.8503483,98.798285 5.4873018,96.149636 7.5725653,90.075084 8.4842643,85.299278 10.540389,74.528564 26.66334,40.298059 35.538506,27.860625 44.163969,15.773118 57.336676,3.8336711 64.373248,1.725464 67.45281,0.80280447 75.687322,0.28728941 82.672172,0.57987596 93.975586,1.053361 96.075466,1.6064469 101.77114,5.6103221 c 3.51959,2.4741601 8.84771,7.7380399 11.84028,11.6975129 5.34595,7.073211 6.73877,10.899245 10.11907,27.796674 0.93096,4.653714 5.02811,14.980017 9.10475,22.947338 4.07667,7.967323 8.93813,18.203913 10.80326,22.747978 3.38807,8.254355 3.38851,8.265606 0.4792,12.259445 -2.72756,3.74436 -3.01415,8.32692 -0.98499,15.75023 0.45639,1.66962 -0.86254,2.30276 -5.31486,2.55138 -16.79926,0.93806 -34.88233,3.90238 -38.97009,6.38829 -2.461738,1.49708 -7.189387,6.39507 -10.50586,10.88441 -4.525358,6.12574 -7.416734,8.54759 -11.587654,9.70592 -8.270043,2.29668 -10.768999,1.92776 -18.744227,-2.76719 z M 75.29431,132.82063 c 3.038926,-2.06501 5.538107,-4.2302 5.553717,-4.81154 0.01563,-0.58134 2.346338,-3.71336 5.179348,-6.96002 2.833022,-3.24669 6.24421,-9.19455 7.580414,-13.2175 2.392943,-7.20447 2.379382,-7.35499 -0.901939,-10.012048 -5.317956,-4.306227 -12.571233,-3.531567 -16.327644,1.743811 -3.67688,5.163717 -7.329516,5.650737 -11.103551,1.480477 -1.473782,-1.628524 -1.949464,-2.96095 -1.057058,-2.96095 0.892406,0 2.034301,0.666213 2.537532,1.480473 0.503242,0.814267 1.911492,1.480477 3.129436,1.480477 1.714021,0 2.112482,-1.563058 1.76322,-6.916525 -0.53811,-8.248122 -2.72933,-9.445882 -7.872163,-4.30305 -2.092134,2.092128 -5.608672,4.74289 -7.814542,5.89058 -2.205882,1.147694 -5.601093,3.789258 -7.544931,5.870145 -4.746066,5.0807 -3.584581,11.97443 3.831785,22.74267 9.184028,13.33481 13.5521,14.94451 23.046376,8.493 z M 58.922524,112.69785 c 0.465923,-1.39775 4.242918,-2.08909 12.829392,-2.34829 6.692983,-0.20203 11.852942,0.14415 11.466562,0.76934 -0.386379,0.62516 -4.914899,1.29532 -10.063393,1.48921 -5.148495,0.19391 -10.605591,0.73914 -12.12689,1.21162 -1.894176,0.58829 -2.557867,0.2347 -2.105671,-1.12188 z M 36.191608,94.584227 C 51.194169,88.488144 63.795212,80.82558 68.100903,75.180529 c 2.192616,-2.874666 5.075607,-5.226664 6.406636,-5.226664 1.33104,0 3.955398,-1.442366 5.831916,-3.205258 2.904132,-2.728294 3.964779,-2.953321 7.127662,-1.512213 3.363115,1.53234 3.714899,1.379872 3.706075,-1.606281 -0.0059,-1.814629 -1.333409,-5.297965 -2.951199,-7.740746 -3.579287,-5.404545 -3.678929,-9.090657 -0.547432,-20.251242 2.780661,-9.910194 8.613466,-17.42936 11.376799,-14.666025 1.32642,1.326426 1.12718,2.794204 -0.84597,6.232233 -1.419569,2.473448 -2.58103,6.10872 -2.58103,8.078384 0,1.969663 -1.332426,4.913632 -2.960947,6.542153 -1.628521,1.628521 -2.954433,4.459926 -2.946473,6.292012 0.02215,5.102611 6.551201,17.653832 11.56145,22.225354 2.46512,2.249253 4.90311,6.006651 5.41774,8.349769 0.62963,2.8667 3.00122,5.565815 7.25033,8.251655 3.47305,2.195294 7.48788,5.766241 8.92185,7.935439 1.70147,2.573845 2.25699,2.91536 1.59909,0.98305 -2.67354,-7.852401 -6.79176,-31.831728 -8.05196,-46.884465 C 114.66922,28.119441 111.82164,18.369636 105.73902,12.422745 96.145996,3.0437746 74.17204,-0.13379987 61.966567,6.0929647 48.272105,13.079362 32.940796,33.263388 21.776321,59.004366 12.817173,79.660718 7.2438894,102.52428 11.167793,102.52428 c 1.641141,0 4.490726,-9.394996 4.502752,-14.845439 0.0046,-2.058037 0.912896,-5.055996 2.018568,-6.66213 1.105665,-1.606133 2.363996,-6.153418 2.796282,-10.105076 0.80796,-7.385693 5.567504,-15.148942 5.546908,-9.047501 -0.01232,3.632476 -5.437566,35.352308 -6.758349,39.513766 l -0.974673,3.07092 4.242812,-3.02115 c 2.333546,-1.661638 8.475829,-4.741185 13.649515,-6.843443 z"
     style="fill:#000000" />
</svg>
